<?xml version="1.0" encoding="UTF-8"?>
<svg viewBox="0 0 740.75604 708.38928" xmlns="http://www.w3.org/2000/svg" xmlns:xlink="http://www.w3.org/1999/xlink">
 <defs>
  <filter id="i">
   <feGaussianBlur stdDeviation="10.01594"/>
  </filter>
  <filter id="j" x="-.11716" y="-.13548" width="1.2343" height="1.271">
   <feGaussianBlur stdDeviation="9.73195"/>
  </filter>
  <linearGradient id="c">
   <stop stop-color="#f0f" offset="0"/>
   <stop stop-color="#f0f" stop-opacity="0" offset="1"/>
  </linearGradient>
  <linearGradient id="a">
   <stop stop-color="#fff" offset="0"/>
   <stop stop-color="#fff" stop-opacity="0" offset="1"/>
  </linearGradient>
  <linearGradient id="f" x1="158.28" x2="157.57" y1="158.68" y2="102.9" gradientTransform="matrix(2.6594 0 0 .74898 -361.9 -446.9)" gradientUnits="userSpaceOnUse" xlink:href="#a"/>
  <linearGradient id="g" x1="157.19" x2="151.48" y1="101" y2="128.89" gradientTransform="matrix(-.81275 .21923 -.44805 -.39767 174.75 -462.44)" gradientUnits="userSpaceOnUse" xlink:href="#a"/>
  <linearGradient id="h" x1="157.19" x2="151.48" y1="101" y2="128.89" gradientTransform="matrix(-.81275 .21923 -.44805 -.39767 258.35 -469.76)" gradientUnits="userSpaceOnUse" xlink:href="#a"/>
  <linearGradient id="b" x1="165.2" x2="58.507" y1="-753.77" y2="-340.05" gradientUnits="userSpaceOnUse" xlink:href="#a"/>
  <radialGradient id="e" cx="-297.84" cy="1027.7" r="251.32" gradientTransform="matrix(.66095 -.08459 .07201 .5627 178.55 -1090.9)" gradientUnits="userSpaceOnUse" xlink:href="#c"/>
  <radialGradient id="d" cx="-297.84" cy="1027.7" r="251.32" gradientTransform="matrix(.66095 -.08459 .07201 .5627 174.41 -1090.9)" gradientUnits="userSpaceOnUse" xlink:href="#c"/>
 </defs>
 <g transform="matrix(2.322 0 0 2.322 244.91 1367.8)">
  <path transform="matrix(1.3024 0 -.26814 .28467 -127.52 -364.39)" d="m259.87 144.73c0 47.607-38.877 86.2-86.833 86.2s-86.833-38.593-86.833-86.2 38.877-86.2 86.833-86.2 86.833 38.593 86.833 86.2z" filter="url(#j)" opacity=".77"/>
  <path d="m185.29-441.05c0 75.117-61.342 136.01-137.01 136.01s-137.01-60.894-137.01-136.01 61.342-136.01 137.01-136.01 137.01 60.894 137.01 136.01z" fill="#800080"/>
  <path d="m188.05-441.05c0 75.117-61.342 136.01-137.01 136.01s-137.01-60.894-137.01-136.01 61.342-136.01 137.01-136.01 137.01 60.894 137.01 136.01z" fill="url(#e)"/>
  <path transform="matrix(.54 0 0 .54243 192.3 -692.79)" d="m-328.41 233.72c0.18255 0.0101 0.5669-0.1765 0 0zc-73.616 18.458-137.46 72.67-166.19 143.09-28.376 66.802-24.561 146.75 11 210.25 34.527 63.934 98.89 110.76 170.41 123.56 71.41 13.761 148.29-5.5621 203.95-52.582 50.759-41.847 83.795-105.02 87.805-170.82 1.7548-25.83-0.68107-51.881-7.1005-76.879 14.473 67.312-3.0454 140.49-46.656 193.62-41.235 51.728-105.3 84.875-171.71 87.818-64.77 3.5909-130.55-20.397-176.95-65.704-47.713-45.689-74.942-112.32-71.52-178.71 2.882-73.418 43.005-143.78 104.18-184.06 19.31-12.828 40.577-22.869 62.781-29.594z" filter="url(#i)"/>
  <path d="m183.91-441.05c0 75.117-61.342 136.01-137.01 136.01s-137.01-60.894-137.01-136.01 61.342-136.01 137.01-136.01 137.01 60.894 137.01 136.01z" fill="url(#d)"/>
  <path d="m-22.84-527.21c3.6679 0.54138 7.3356 1.1817 11.028 1.6068 3.6049 0.1699 6.9158 1.416 10.445 1.7464 3.1459 0.42742 6.294 0.54672 9.4493 0.79007 1.6246-0.0108 3.2552 0.12342 4.8927 0.26599 5.3472 0.48909 5.1338 4.4379-0.21331 3.9489-1.5768-0.15566-3.1348-0.22562-4.705-0.25007-3.3298-0.26665-6.66-0.39072-9.9814-0.8416-3.5707-0.45022-6.8953-1.4129-10.5-1.7529-4.2635-0.52141-8.5237-1.1792-12.73-1.9144-5.0926-1.2487-2.778-4.8478 2.3148-3.5991z"/>
  <path d="m98.431-541.59c-3.2406 1.8014-6.4462 3.6952-9.751 5.3966-3.3129 1.4316-5.9708 3.7664-9.1556 5.3212-2.7925 1.5105-5.6959 2.7334-8.5621 4.075-1.5236 0.56347-3.0021 1.2646-4.4837 1.9761-4.8302 2.3452-3.2367 5.9645 1.5937 3.6193 1.4201-0.70222 2.8532-1.3177 4.3137-1.8949 3.0214-1.425 6.0931-2.7166 9.0416-4.311 3.182-1.6818 5.9526-3.7561 9.205-5.3468 3.805-1.993 7.5588-4.1124 11.235-6.2852 4.324-2.9661 0.88785-5.5163-3.4362-2.5502z"/>
  <path d="m110.3-372.68c0 15.731-25.434 28.483-56.808 28.483s-56.808-12.752-56.808-28.483 25.434-28.483 56.808-28.483 56.808 12.752 56.808 28.483z"/>
  <path d="m93.21-357.49c0 6.2924-17.358 11.393-38.769 11.393s-38.769-5.101-38.769-11.393 17.357-11.393 38.769-11.393 38.769 5.101 38.769 11.393z" fill="url(#f)"/>
  <path d="m39.379-482.38c0 16.78-14.169 30.382-31.648 30.382s-31.648-13.603-31.648-30.382 14.169-30.382 31.648-30.382 31.648 13.603 31.648 30.382z" fill="#f9f9f9"/>
  <path d="m18.991-487.73c0 10.604-8.2378 19.199-18.4 19.199s-18.399-8.5959-18.399-19.199 8.2376-19.199 18.399-19.199 18.4 8.5959 18.4 19.199z"/>
  <path d="m6.4072-472.35c3.8738-1.1761 5.8349-3.618 4.8892-5.7425-7.5546-0.47066-15.325 0.84819-22.293 1.6706 1.147 3.6852 10.861 6.2608 17.404 4.0719z" fill="url(#g)"/>
  <path d="m125.13-489.58c0 16.78-14.169 30.382-31.648 30.382s-31.648-13.603-31.648-30.382 14.169-30.382 31.648-30.382 31.648 13.603 31.648 30.382z" fill="#f9f9f9"/>
  <path d="m102.59-495.05c0 10.604-8.2378 19.199-18.4 19.199s-18.399-8.5959-18.399-19.199 8.2376-19.199 18.399-19.199 18.4 8.5959 18.4 19.199z"/>
  <path d="m90.009-479.67c3.8737-1.1761 5.8349-3.618 4.8892-5.7425-7.5546-0.47066-15.325 0.84818-22.293 1.6706 1.1468 3.6852 10.861 6.2608 17.404 4.0719z" fill="url(#h)"/>
  <path d="m48.652-570.68c-29.155 0.28637-61.471 8.9545-81.108 31.241 19.603 72.439 113.06 114.29 179.39 77.243 8.3706-4.7516 19.58-9.5299 24.316-17.231-14.77-52.906-67.401-92.822-122.6-91.254z" fill="url(#b)"/>
  <path d="m48.652-570.68c-29.155 0.28637-61.471 8.9545-81.108 31.241 19.603 72.439 113.06 114.29 179.39 77.243 8.3706-4.7516 19.58-9.5299 24.316-17.231-14.77-52.906-67.401-92.822-122.6-91.254z" fill="url(#b)"/>
 </g>
</svg>
