<?xml version="1.0" encoding="UTF-8"?>
<svg width="54" height="54" version="1.1" viewBox="0 0 54.000003 53.999999" xmlns="http://www.w3.org/2000/svg">
 <path transform="matrix(.64173 .2856 -.2856 .64173 -472.05 -389.16)" d="m867.26 248.64-8.7921-2.0049-4.3932 7.8754-0.81016-8.9814-8.8475-1.7445 8.2914-3.5459-1.0749-8.9536 5.9346 6.7899 8.1832-3.7891-4.6237 7.7423z" color="#000000" color-rendering="auto" fill="#ffc601" fill-rule="evenodd" image-rendering="auto" shape-rendering="auto" solid-color="#000000" style="isolation:auto;mix-blend-mode:normal"/>
 <path d="m8.4138 10.219-5.39e-5 5.462" fill="none" stroke="#fff" stroke-linecap="round" stroke-linejoin="round" stroke-width="1.834"/>
 <path d="m8.4137 15.681v23.329" fill="none" stroke="#515151" stroke-linecap="round" stroke-linejoin="round" stroke-width="1.834"/>
 <path d="m4.081 25.799a11.709 11.709 0 0 1 11.708 11.71 11.709 11.709 0 0 1 -0.0151 0.40138 11.709 11.709 0 0 1 -0.77695 0.03884 11.709 11.709 0 0 1 -11.71 -11.71 11.709 11.709 0 0 1 0.015103 -0.39976 11.709 11.709 0 0 1 0.77856 -0.04046z" color="#000000" color-rendering="auto" fill="#479f00" fill-rule="evenodd" image-rendering="auto" shape-rendering="auto" solid-color="#000000" style="isolation:auto;mix-blend-mode:normal"/>
 <ellipse cx="34.776" cy="34.86" rx="19.14" ry="19.14" color="#000000" color-rendering="auto" fill="#f8ad32" fill-rule="evenodd" image-rendering="auto" shape-rendering="auto" solid-color="#000000" style="isolation:auto;mix-blend-mode:normal"/>
 <ellipse cx="29.647" cy="29.922" rx="1.6667" ry="1.6667" color="#000000" color-rendering="auto" fill="#992500" fill-rule="evenodd" image-rendering="auto" shape-rendering="auto" solid-color="#000000" stroke="#9a2400" stroke-linecap="round" stroke-linejoin="round" stroke-width="1.0788" style="isolation:auto;mix-blend-mode:normal"/>
 <ellipse cx="39.905" cy="29.922" rx="1.6667" ry="1.6667" color="#000000" color-rendering="auto" fill="#992500" fill-rule="evenodd" image-rendering="auto" shape-rendering="auto" solid-color="#000000" stroke="#9a2400" stroke-linecap="round" stroke-linejoin="round" stroke-width="1.0788" style="isolation:auto;mix-blend-mode:normal"/>
 <path d="m20.86 36.491h1.0788c0.85915 6.3303 6.2723 11.214 12.838 11.214 6.566 0 11.977-4.8835 12.836-11.214h1.0788" color="#000000" color-rendering="auto" fill="none" image-rendering="auto" shape-rendering="auto" solid-color="#000000" stroke="#9a2400" stroke-linecap="round" stroke-linejoin="round" stroke-width="2.1576" style="isolation:auto;mix-blend-mode:normal"/>
 <path d="m27.361 11.597c-0.75616 4.0494-5.5443 7.6875-8.0059 11.807 13.16-2.0879 21.957-1.2502 30.669-0.10915-2.9168-5.0703-4.109-11.768-9.2212-16.508s-12.694-7.2-20.489-6.4366c5.3845 3.2178 7.8033 7.1978 7.0472 11.247z" fill="#1260ee" fill-rule="evenodd"/>
 <ellipse cx="31.443" cy="5.2163" rx="1.2811" ry="1.2811" color="#000000" color-rendering="auto" fill="#fff" fill-rule="evenodd" image-rendering="auto" shape-rendering="auto" solid-color="#000000" style="isolation:auto;mix-blend-mode:normal"/>
 <ellipse cx="39.197" cy="10.947" rx="1.2811" ry="1.2811" color="#000000" color-rendering="auto" fill="#fff" fill-rule="evenodd" image-rendering="auto" shape-rendering="auto" solid-color="#000000" style="isolation:auto;mix-blend-mode:normal"/>
 <ellipse cx="31.915" cy="12.431" rx="1.2811" ry="1.2811" color="#000000" color-rendering="auto" fill="#fff" fill-rule="evenodd" image-rendering="auto" shape-rendering="auto" solid-color="#000000" style="isolation:auto;mix-blend-mode:normal"/>
 <ellipse cx="36.769" cy="17.016" rx="1.2811" ry="1.2811" color="#000000" color-rendering="auto" fill="#fff" fill-rule="evenodd" image-rendering="auto" shape-rendering="auto" solid-color="#000000" style="isolation:auto;mix-blend-mode:normal"/>
 <ellipse cx="43.647" cy="18.634" rx="1.2811" ry="1.2811" color="#000000" color-rendering="auto" fill="#fff" fill-rule="evenodd" image-rendering="auto" shape-rendering="auto" solid-color="#000000" style="isolation:auto;mix-blend-mode:normal"/>
 <ellipse cx="28.274" cy="18.769" rx="1.2811" ry="1.2811" color="#000000" color-rendering="auto" fill="#fff" fill-rule="evenodd" image-rendering="auto" shape-rendering="auto" solid-color="#000000" style="isolation:auto;mix-blend-mode:normal"/>
</svg>
